<?xml version="1.0" encoding="UTF-8" standalone="yes"?>
<svg version="1.1" id="Layer_1" xmlns:x="&amp;ns_extend;" xmlns:i="&amp;ns_ai;" xmlns:graph="&amp;ns_graphs;" xmlns="http://www.w3.org/2000/svg" xmlns:xlink="http://www.w3.org/1999/xlink" x="0px" y="0px" viewBox="0 0 323.45801 314.07001" style="enable-background:new 0 0 323.45801 314.07001;" xml:space="preserve">
      <style type="text/css">.st0{fill:#CE0000;}	.st1{opacity:0.2;enable-background:new    ;}	.st2{fill:#B7B7B7;}	.st3{opacity:0.3;enable-background:new    ;}	.st4{opacity:0.4;fill:#FFFFFF;enable-background:new    ;}	.st5{opacity:0.5;fill:#FFFFFF;enable-background:new    ;}	.st6{opacity:0.3;fill:#FFFFFF;enable-background:new    ;}</style>
    <metadata>
              <sfw>
                      <slices/>
            <sliceSourceBounds bottomLeftOrigin="true" height="314.80801" width="324" x="-0.272" y="-0.27098"/>
                  </sfw>
          </metadata>
    <g id="color_index_2" fill="rgba(206, 0, 0, 1)">
              <path d="M290.62201,76.13998v-33.365H250.733c-16.858-9.917-37.79199-18.328-63.778-23.627&#x9;&#x9;c-13.386-2.73-21.269-6.332-25.226-11.873c-3.95799,5.541-11.84,9.143-25.226,11.873c-25.987,5.299-46.92,13.71-63.778,23.627&#x9;&#x9;H32.835v33.365c-24.598,29.215-28.606,57.58-28.606,57.58v84.72299c31.251,54.597,90.06999,91.39803,157.5,91.39803&#x9;&#x9;s126.24899-36.802,157.5-91.39803v-84.72299C319.229,133.71999,315.22101,105.35499,290.62201,76.13998z"/>
          </g>
    <g>
              <path class="st1" d="M4.229,194.83197h315v24.00902c0,0-53.94876,104.71812-175.267,90.14803&#x9;&#x9;C35.617,295.97696,4.229,215.66699,4.229,215.66699V194.83197z"/>
          </g>
    <g id="color_index_1" fill="rgba(183, 183, 183, 1)">
              <polygon points="258.01199,283.216 202.687,305.617 156.75101,309.77301 107.371,301.55701 56.746,277.89999 &#x9;&#x9;120.963,130.23099 143.569,126.90798 119.151,123.99699 92.787,104.66499 207.689,104.66499 236.783,124.96298 &#x9;&#x9;209.39301,149.56299 &#x9;"/>
          </g>
    <g>
              <path class="st3" d="M258.01501,283.22101L202.67801,305.625l-45.935,4.155l-49.382-8.22501l-49.349-23.06l-1.261-0.58899&#x9;&#x9;l0.05-0.13501l0.337-0.97501c23.497,8.82999,115.07517,38.29233,191.05017-20.57669L258.01501,283.22101z"/>
        <path class="st3" d="M233.02901,100.05299v-0.006c3.96201,0,7.175-3.212,7.175-7.175h0.006c0,3.962,3.21201,7.175,7.175,7.175&#x9;&#x9;v0.006c-3.96201,0-7.175,3.212-7.175,7.175h-0.006C240.20399,103.26498,236.992,100.05299,233.02901,100.05299z"/>
        <path class="st3" d="M18.699,155.82999v-0.00301c2.276,0,4.122-1.845,4.122-4.12199h0.003c0,2.276,1.845,4.12199,4.122,4.12199&#x9;&#x9;v0.00301c-2.276,0-4.122,1.845-4.122,4.12199h-0.003C22.821,157.67598,20.976,155.82999,18.699,155.82999z"/>
        <path class="st3" d="M80.928,132.88498v-0.006c3.87,0,7.007-3.13699,7.007-7.007h0.006c0,3.87,3.137,7.007,7.007,7.007v0.006&#x9;&#x9;c-3.87,0-7.007,3.13699-7.007,7.007h-0.006C87.935,136.02199,84.798,132.88498,80.928,132.88498z"/>
          </g>
    <g>
              <path class="st4" d="M218.145,173.62599L215.099,301.85999c0,0,38.19901-17.22198,41.98199-21.19299L218.145,173.62599z"/>
        <path class="st5" d="M99.001,235.44899v-0.011c7.326,0,13.264-5.938,13.264-13.26399h0.011c0,7.326,5.938,13.26401,13.264,13.26401&#x9;&#x9;v0.011c-7.326,0-13.264,5.938-13.264,13.26399h-0.011C112.265,241.38698,106.327,235.44899,99.001,235.44899z"/>
        <path class="st5" d="M134.418,207.84499v-0.007c5.054,0,9.151-4.097,9.151-9.151h0.007c0,5.054,4.097,9.151,9.151,9.151v0.007&#x9;&#x9;c-5.054,0-9.151,4.097-9.151,9.151h-0.007C143.569,211.94199,139.472,207.84499,134.418,207.84499z"/>
        <path class="st5" d="M116.424,179.94499v-0.005c3.664,0,6.633-2.97,6.633-6.633h0.005c0,3.664,2.97,6.633,6.633,6.633v0.005&#x9;&#x9;c-3.664,0-6.633,2.97-6.633,6.633h-0.005C123.057,182.91498,120.087,179.94499,116.424,179.94499z"/>
        <path class="st5" d="M223.87801,57.41198v-0.005c3.23399,0,5.85699-2.622,5.85699-5.857h0.005c0,3.234,2.62199,5.857,5.85699,5.857&#x9;&#x9;v0.005c-3.23399,0-5.85699,2.622-5.85699,5.857h-0.005C229.73399,60.03399,227.112,57.41198,223.87801,57.41198z"/>
          </g>
    <g id="color_index_0" fill="rgba(0, 0, 0, 1)">
              <polygon points="218.145,173.62599 224.145,159.54698 266.84299,156.93498 274.79401,165.43498 271.91501,134.85298 &#x9;&#x9;236.783,124.96298 209.39301,149.56398 &#x9;"/>
        <polygon points="126.236,85.01199 127.132,73.33798 137.257,67.45798 126.431,62.99799 123.968,51.55098 116.381,60.46899 &#x9;&#x9;104.734,59.27499 110.87,69.24599 106.135,79.95399 117.515,77.19898 &#x9;"/>
        <polygon points="156.12399,70.92599 156.75999,62.63898 163.948,58.46399 156.263,55.29799 154.51401,47.17199 149.12801,53.50298 &#x9;&#x9;140.85899,52.65498 145.216,59.73399 141.854,67.33598 149.933,65.37998 &#x9;"/>
        <polygon points="178.953,67.05898 179.34801,61.90598 183.81799,59.31099 179.039,57.34198 177.952,52.28999 174.603,56.22599 &#x9;&#x9;169.461,55.69899 172.17,60.09998 170.08,64.82699 175.103,63.61098 &#x9;"/>
        <polygon points="197.72701,70.56499 199.02299,66.82398 202.839,65.77099 199.681,63.38198 199.85899,59.42698 196.612,61.69199 &#x9;&#x9;192.905,60.30098 194.056,64.08898 191.58701,67.18498 195.54601,67.26099 &#x9;"/>
        <polygon points="215.164,76.73399 216.45799,74.87299 218.724,74.88299 217.354,73.07799 218.064,70.92599 215.924,71.67098 &#x9;&#x9;214.09599,70.33099 214.144,72.59698 212.304,73.91998 214.474,74.57498 &#x9;"/>
        <path d="M161.728,314.341c-33.355,0-66.071-8.94-94.611-25.854c-27.703-16.41699-50.799-39.86502-66.794-67.80901l-0.595-1.039&#x9;&#x9;l0.044-86.54901c0.168-1.19299,4.354-29.176,28.562-58.578V38.27499h43.173c18.529-10.724,40.086-18.641,64.09499-23.536&#x9;&#x9;c12.189-2.486,19.327-5.689,22.463-10.079l3.662-5.127l3.662,5.126c3.136,4.391,10.274,7.594,22.464,10.08&#x9;&#x9;c24.008,4.896,45.565,12.812,64.09601,23.536h43.172v36.237c24.20801,29.402,28.39401,57.385,28.56299,58.578l0.04401,0.629&#x9;&#x9;v85.91901l-0.595,1.039c-15.99399,27.94299-39.09201,51.39201-66.79401,67.80901&#x9;&#x9;C227.80099,305.401,195.084,314.341,161.728,314.341z M8.729,217.23698c31.614,54.37401,90.127,88.10402,153,88.10402&#x9;&#x9;s121.38699-33.729,153-88.10402v-83.16c-0.49701-2.924-5.42001-28.757-27.54901-55.039l-1.05801-1.256v-30.507h-36.614&#x9;&#x9;l-1.056-0.621c-17.909-10.535-38.90199-18.306-62.396-23.097c-11.65199-2.376-19.308-5.383-24.327-9.684&#x9;&#x9;c-5.019,4.301-12.673,7.308-24.326,9.684c-23.495,4.791-44.487,12.562-62.396,23.096l-1.056,0.622H37.335v30.507l-1.058,1.256&#x9;&#x9;c-22.22,26.39-27.057,52.09299-27.549,55.033v83.166H8.729z"/>
        <path d="M217.01801,131.55899l-8.784,8.784l-21.09709-11.05042C187.13791,129.29257,199.88586,133.87914,217.01801,131.55899z"/>
          </g>
    <g>
              <path class="st5" d="M42.74,231.88199c0,1.967-1.595,3.562-3.562,3.562s-3.562-1.595-3.562-3.562s1.595-3.562,3.562-3.562&#x9;&#x9;S42.74,229.91399,42.74,231.88199z M53.03,228.31999c-1.967,0-3.562,1.595-3.562,3.562s1.595,3.562,3.562,3.562&#x9;&#x9;s3.562-1.595,3.562-3.562C56.592,229.91399,54.997,228.31999,53.03,228.31999z M39.179,213.50299c-1.967,0-3.562,1.595-3.562,3.562&#x9;&#x9;s1.595,3.562,3.562,3.562s3.562-1.595,3.562-3.562C42.74,215.09799,41.146,213.50299,39.179,213.50299z M53.03,213.50299&#x9;&#x9;c-1.967,0-3.562,1.595-3.562,3.562s1.595,3.562,3.562,3.562s3.562-1.595,3.562-3.562S54.997,213.50299,53.03,213.50299z&#x9;&#x9; M39.179,198.68698c-1.967,0-3.562,1.595-3.562,3.562s1.595,3.562,3.562,3.562s3.562-1.595,3.562-3.562&#x9;&#x9;C42.74,200.28198,41.146,198.68698,39.179,198.68698z M53.03,198.68698c-1.967,0-3.562,1.595-3.562,3.562s1.595,3.562,3.562,3.562&#x9;&#x9;s3.562-1.595,3.562-3.562S54.997,198.68698,53.03,198.68698z M39.179,183.87099c-1.967,0-3.562,1.595-3.562,3.562&#x9;&#x9;s1.595,3.562,3.562,3.562s3.562-1.595,3.562-3.562C42.74,185.46498,41.146,183.87099,39.179,183.87099z M53.03,183.87099&#x9;&#x9;c-1.967,0-3.562,1.595-3.562,3.562s1.595,3.562,3.562,3.562s3.562-1.595,3.562-3.562&#x9;&#x9;C56.592,185.46498,54.997,183.87099,53.03,183.87099z M39.179,169.05399c-1.967,0-3.562,1.595-3.562,3.562s1.595,3.562,3.562,3.562&#x9;&#x9;s3.562-1.595,3.562-3.562C42.74,170.64899,41.146,169.05399,39.179,169.05399z M53.03,169.05399c-1.967,0-3.562,1.595-3.562,3.562&#x9;&#x9;s1.595,3.562,3.562,3.562s3.562-1.595,3.562-3.562S54.997,169.05399,53.03,169.05399z M39.856,154.23799&#x9;&#x9;c-1.967,0-3.562,1.595-3.562,3.562s1.595,3.562,3.562,3.562s3.562-1.595,3.562-3.562&#x9;&#x9;C43.417,155.83298,41.823,154.23799,39.856,154.23799z M53.707,154.23799c-1.967,0-3.562,1.595-3.562,3.562&#x9;&#x9;s1.595,3.562,3.562,3.562s3.562-1.595,3.562-3.562C57.269,155.83298,55.674,154.23799,53.707,154.23799z M39.856,139.42198&#x9;&#x9;c-1.967,0-3.562,1.595-3.562,3.562s1.595,3.562,3.562,3.562s3.562-1.595,3.562-3.562&#x9;&#x9;C43.417,141.01599,41.823,139.42198,39.856,139.42198z M53.707,139.42198c-1.967,0-3.562,1.595-3.562,3.562&#x9;&#x9;s1.595,3.562,3.562,3.562s3.562-1.595,3.562-3.562C57.269,141.01599,55.674,139.42198,53.707,139.42198z M39.856,124.60499&#x9;&#x9;c-1.967,0-3.562,1.595-3.562,3.562c0,1.967,1.595,3.562,3.562,3.562s3.562-1.595,3.562-3.562&#x9;&#x9;C43.417,126.19998,41.823,124.60499,39.856,124.60499z M53.707,124.60499c-1.967,0-3.562,1.595-3.562,3.562&#x9;&#x9;c0,1.967,1.595,3.562,3.562,3.562s3.562-1.595,3.562-3.562C57.269,126.19998,55.674,124.60499,53.707,124.60499z M39.856,109.78899&#x9;&#x9;c-1.967,0-3.562,1.595-3.562,3.562c0,1.967,1.595,3.562,3.562,3.562s3.562-1.595,3.562-3.562&#x9;&#x9;C43.417,111.38399,41.823,109.78899,39.856,109.78899z M53.707,109.78899c-1.967,0-3.562,1.595-3.562,3.562&#x9;&#x9;c0,1.967,1.595,3.562,3.562,3.562s3.562-1.595,3.562-3.562S55.674,109.78899,53.707,109.78899z M39.856,94.97298&#x9;&#x9;c-1.967,0-3.562,1.595-3.562,3.562c0,1.967,1.595,3.562,3.562,3.562s3.562-1.595,3.562-3.562&#x9;&#x9;C43.417,96.56699,41.823,94.97298,39.856,94.97298z M53.707,94.97298c-1.967,0-3.562,1.595-3.562,3.562&#x9;&#x9;c0,1.967,1.595,3.562,3.562,3.562s3.562-1.595,3.562-3.562C57.269,96.56699,55.674,94.97298,53.707,94.97298z M269.75,228.31999&#x9;&#x9;c-1.96701,0-3.56201,1.595-3.56201,3.562s1.595,3.562,3.56201,3.562s3.56201-1.595,3.56201-3.562&#x9;&#x9;C273.31201,229.91399,271.71799,228.31999,269.75,228.31999z M283.60199,228.31999c-1.96701,0-3.56201,1.595-3.56201,3.562&#x9;&#x9;s1.595,3.562,3.56201,3.562s3.56201-1.595,3.56201-3.562C287.164,229.91399,285.569,228.31999,283.60199,228.31999z&#x9;&#x9; M269.75,213.50299c-1.96701,0-3.56201,1.595-3.56201,3.562s1.595,3.562,3.56201,3.562s3.56201-1.595,3.56201-3.562&#x9;&#x9;S271.71799,213.50299,269.75,213.50299z M283.60199,213.50299c-1.96701,0-3.56201,1.595-3.56201,3.562s1.595,3.562,3.56201,3.562&#x9;&#x9;s3.56201-1.595,3.56201-3.562S285.569,213.50299,283.60199,213.50299z M269.75,198.68698c-1.96701,0-3.56201,1.595-3.56201,3.562&#x9;&#x9;s1.595,3.562,3.56201,3.562s3.56201-1.595,3.56201-3.562S271.71799,198.68698,269.75,198.68698z M283.60199,198.68698&#x9;&#x9;c-1.96701,0-3.56201,1.595-3.56201,3.562s1.595,3.562,3.56201,3.562s3.56201-1.595,3.56201-3.562&#x9;&#x9;S285.569,198.68698,283.60199,198.68698z M269.75,183.87099c-1.96701,0-3.56201,1.595-3.56201,3.562s1.595,3.562,3.56201,3.562&#x9;&#x9;s3.56201-1.595,3.56201-3.562C273.31201,185.46498,271.71799,183.87099,269.75,183.87099z M283.60199,183.87099&#x9;&#x9;c-1.96701,0-3.56201,1.595-3.56201,3.562s1.595,3.562,3.56201,3.562s3.56201-1.595,3.56201-3.562&#x9;&#x9;C287.164,185.46498,285.569,183.87099,283.60199,183.87099z M269.75,169.05399c-1.96701,0-3.56201,1.595-3.56201,3.562&#x9;&#x9;s1.595,3.562,3.56201,3.562s3.56201-1.595,3.56201-3.562S271.71799,169.05399,269.75,169.05399z M283.60199,169.05399&#x9;&#x9;c-1.96701,0-3.56201,1.595-3.56201,3.562s1.595,3.562,3.56201,3.562s3.56201-1.595,3.56201-3.562&#x9;&#x9;S285.569,169.05399,283.60199,169.05399z M284.27899,154.23799c-1.96701,0-3.56201,1.595-3.56201,3.562s1.595,3.562,3.56201,3.562&#x9;&#x9;s3.56201-1.595,3.56201-3.562C287.841,155.83298,286.246,154.23799,284.27899,154.23799z M284.27899,139.42198&#x9;&#x9;c-1.96701,0-3.56201,1.595-3.56201,3.562s1.595,3.562,3.56201,3.562s3.56201-1.595,3.56201-3.562&#x9;&#x9;C287.841,141.01599,286.246,139.42198,284.27899,139.42198z M270.427,124.60499c-1.96701,0-3.56201,1.595-3.56201,3.562&#x9;&#x9;c0,1.967,1.595,3.562,3.56201,3.562s3.56201-1.595,3.56201-3.562C273.98901,126.19998,272.39499,124.60499,270.427,124.60499z&#x9;&#x9; M284.27899,124.60499c-1.96701,0-3.56201,1.595-3.56201,3.562c0,1.967,1.595,3.562,3.56201,3.562s3.56201-1.595,3.56201-3.562&#x9;&#x9;C287.841,126.19998,286.246,124.60499,284.27899,124.60499z M270.427,109.78899c-1.96701,0-3.56201,1.595-3.56201,3.562&#x9;&#x9;c0,1.967,1.595,3.562,3.56201,3.562s3.56201-1.595,3.56201-3.562S272.39499,109.78899,270.427,109.78899z M284.27899,109.78899&#x9;&#x9;c-1.96701,0-3.56201,1.595-3.56201,3.562c0,1.967,1.595,3.562,3.56201,3.562s3.56201-1.595,3.56201-3.562&#x9;&#x9;S286.246,109.78899,284.27899,109.78899z M270.427,94.97298c-1.96701,0-3.56201,1.595-3.56201,3.562&#x9;&#x9;c0,1.967,1.595,3.562,3.56201,3.562s3.56201-1.595,3.56201-3.562C273.98901,96.56699,272.39499,94.97298,270.427,94.97298z&#x9;&#x9; M284.27899,94.97298c-1.96701,0-3.56201,1.595-3.56201,3.562c0,1.967,1.595,3.562,3.56201,3.562s3.56201-1.595,3.56201-3.562&#x9;&#x9;C287.841,96.56699,286.246,94.97298,284.27899,94.97298z M273.97601,59.23198H254.88l19.095,19.095v-19.095H273.97601z&#x9;&#x9; M49.482,59.23198v19.095l19.095-19.095C68.577,59.23198,49.482,59.23198,49.482,59.23198z"/>
        <polygon class="st4" points="118.688,123.93999 207.69099,104.66299 91.754,104.66299 &#x9;"/>
        <polygon class="st6" points="236.78101,124.97198 271.91501,134.85298 274.79401,165.43498 261.48499,151.20598 &#x9;&#x9;209.39301,149.56398 &#x9;"/>
        <polygon class="st6" points="271.91501,134.85298 261.48499,151.20598 274.79401,165.43498 &#x9;"/>
          </g>
  </svg>